<svg width="40" height="34" viewBox="0 0 40 34" fill="none" xmlns="http://www.w3.org/2000/svg">
<path d="M8.04445 14.6431C11.2444 19.9628 16.4 24.305 22.6889 27.0306L27.5778 22.8952C28.1778 22.3876 29.0667 22.2185 29.8444 22.444C32.3333 23.1395 35.0222 23.5155 37.7778 23.5155C39 23.5155 40 24.3614 40 25.3952V31.9555C40 32.9893 39 33.8352 37.7778 33.8352C16.9111 33.8352 0 19.5304 0 1.87973C0 0.845881 1 0 2.22222 0H10C11.2222 0 12.2222 0.845881 12.2222 1.87973C12.2222 4.2294 12.6667 6.48509 13.4889 8.59039C13.7333 9.2483 13.5556 9.98139 12.9333 10.5077L8.04445 14.6431Z" fill="#7FAD39"/>
</svg>
