<svg width="40" height="34" viewBox="0 0 40 34" fill="none" xmlns="http://www.w3.org/2000/svg">
<path d="M19.98 0C8.94 0 0 7.57909 0 16.9176C0 26.2561 8.94 33.8352 19.98 33.8352C31.04 33.8352 40 26.2561 40 16.9176C40 7.57909 31.04 0 19.98 0ZM33.84 10.1506H27.94C27.3 8.03587 26.38 6.00575 25.18 4.1279C28.86 5.19371 31.92 7.35916 33.84 10.1506ZM20 3.45119C21.66 5.48131 22.96 7.73135 23.82 10.1506H16.18C17.04 7.73135 18.34 5.48131 20 3.45119ZM4.52 20.3011C4.2 19.2184 4 18.0849 4 16.9176C4 15.7503 4.2 14.6168 4.52 13.5341H11.28C11.12 14.6507 11 15.7672 11 16.9176C11 18.068 11.12 19.1846 11.28 20.3011H4.52ZM6.16 23.6847H12.06C12.7 25.7994 13.62 27.8295 14.82 29.7073C11.14 28.6415 8.08 26.493 6.16 23.6847ZM12.06 10.1506H6.16C8.08 7.34224 11.14 5.19371 14.82 4.1279C13.62 6.00575 12.7 8.03587 12.06 10.1506ZM20 30.384C18.34 28.3539 17.04 26.1039 16.18 23.6847H23.82C22.96 26.1039 21.66 28.3539 20 30.384ZM24.68 20.3011H15.32C15.14 19.1846 15 18.068 15 16.9176C15 15.7672 15.14 14.6337 15.32 13.5341H24.68C24.86 14.6337 25 15.7672 25 16.9176C25 18.068 24.86 19.1846 24.68 20.3011ZM25.18 29.7073C26.38 27.8295 27.3 25.7994 27.94 23.6847H33.84C31.92 26.4761 28.86 28.6415 25.18 29.7073ZM28.72 20.3011C28.88 19.1846 29 18.068 29 16.9176C29 15.7672 28.88 14.6507 28.72 13.5341H35.48C35.8 14.6168 36 15.7503 36 16.9176C36 18.0849 35.8 19.2184 35.48 20.3011H28.72Z" fill="#7FAD39"/>
</svg>
